<svg width="57" height="78" viewBox="0 0 57 78" fill="none" xmlns="http://www.w3.org/2000/svg">
<path d="M28.5 17.7273V28.3636L42.75 14.1818L28.5 0V10.6364C20.9413 10.6364 13.6922 13.6247 8.34746 18.9439C3.00267 24.2631 0 31.4775 0 39C0 44.5664 1.63875 49.7427 4.4175 54.1036L9.61875 48.9273C7.97451 45.8747 7.11762 42.4635 7.125 39C7.125 33.3581 9.377 27.9473 13.3856 23.9579C17.3942 19.9685 22.831 17.7273 28.5 17.7273ZM52.5825 23.8964L47.3812 29.0727C48.9487 32.0509 49.875 35.4545 49.875 39C49.875 44.6419 47.623 50.0527 43.6144 54.0421C39.6058 58.0315 34.169 60.2727 28.5 60.2727V49.6364L14.25 63.8182L28.5 78V67.3636C36.0587 67.3636 43.3078 64.3753 48.6525 59.0561C53.9973 53.7369 57 46.5225 57 39C57 33.4336 55.3613 28.2573 52.5825 23.8964Z" fill="#00FE38"/>
</svg>
